<svg height="512" viewBox="0 0 512 512" width="512" xmlns="http://www.w3.org/2000/svg"><g id="flat"><path d="m184 240 40-16 24-40 8-16 24-8 16 24-24 16-8 34-16 14-57.105 19.035z" fill="#e6af89"/><path d="m216 296-16 56h41.364a76 76 0 0 0 28.225-5.436l26.411-10.564-8-40z" fill="#683b0d"/><path d="m240 256-24 40h48z" fill="#533222"/><path d="m288 296h31.6a20 20 0 0 1 19.612 16.078l12.788 63.922-24 40-14.115-32.936a66 66 0 0 1 -1.95-46.869l.065-.195h-16z" fill="#f6bb92"/><path d="m352 376 24-8 16 8-24 56h-1.373a54.626 54.626 0 0 1 -38.627-16z" fill="#0a9acd"/><path d="m360 288h40v24l-42.082 12.024a14 14 0 0 1 -17.429-10.066l-4.489-17.958z" fill="#0a9acd"/><path d="m232 88-24 8v16l-24 72-24 24-8-32-24-16h-32v48l16 8v28.293a36.009 36.009 0 0 0 6.885 21.175l42.79 58.835a76 76 0 0 0 37.43 27.4l.9.3 16-56-32-56 40-56 8-56 16-8v-24.003z" fill="#fdc9a6"/><path d="m184 240 4.12 7.2-12.12 12.11v12.69a8 8 0 0 1 -16 0v-16a8.008 8.008 0 0 1 2.34-5.66l16-16a8.011 8.011 0 0 1 10.31-.85z" fill="#fdc9a6"/><path d="m184 352v40h36a20 20 0 0 0 20-20 20 20 0 0 0 -20-20z" fill="#027e2a"/><g fill="#715329"><path d="m184 24v24l64 48 32 16v48l16 24 64 16 40 56v128l8 48v24l16 32h64v-464z"/><path d="m336 80v24a8 8 0 0 1 -16 0v-19.72l-20.44-13.62a8.033 8.033 0 0 1 -3.56-6.66v-39c0-.31.02-.65.05-1h15.9c.03.35.05.69.05 1v34.72l20.44 13.62a8.033 8.033 0 0 1 3.56 6.66z"/><path d="m356.44 134.66-20.44 13.62v43.72a7.753 7.753 0 0 1 -.24 1.94l-15.76-3.94v-46a8.033 8.033 0 0 1 3.56-6.66l24-16a8 8 0 1 1 8.88 13.32z"/><path d="m440 232v40a8 8 0 0 1 -16 0v-38.46l-15.43-38.57a7.925 7.925 0 0 1 -.57-2.97v-21.58l-14.66-21.98a8.066 8.066 0 0 1 -1.34-4.44v-48a8.008 8.008 0 0 1 2.34-5.66l21.66-21.65v-44.69h16v48a8.008 8.008 0 0 1 -2.34 5.66l-21.66 21.65v42.27l14.66 21.98a8.066 8.066 0 0 1 1.34 4.44v22.46l15.43 38.57a7.925 7.925 0 0 1 .57 2.97z"/><path d="m456 488h-16.11l-15.78-94.69a8.174 8.174 0 0 1 -.11-1.31v-32a8 8 0 0 1 16 0v31.34l15.89 95.35a8.371 8.371 0 0 1 .11 1.31z"/></g><path d="m100.223 216h-4.223a8 8 0 0 1 0-16h4.223a49.617 49.617 0 0 0 44.622-27.578 8 8 0 0 1 14.31 7.156 65.527 65.527 0 0 1 -58.932 36.422z" fill="#cbcbcb"/><path d="m336 80v24a8 8 0 0 1 -16 0v-19.72l-20.44-13.62a8.033 8.033 0 0 1 -3.56-6.66v-39c0-.31.02-.65.05-1h15.9c.03.35.05.69.05 1v34.72l20.44 13.62a8.033 8.033 0 0 1 3.56 6.66z" fill="#5f4623"/><path d="m356.44 134.66-20.44 13.62v43.72a7.753 7.753 0 0 1 -.24 1.94l-15.76-3.94v-46a8.033 8.033 0 0 1 3.56-6.66l24-16a8 8 0 1 1 8.88 13.32z" fill="#5f4623"/><path d="m456 488h-16.11l-15.78-94.69a8.174 8.174 0 0 1 -.11-1.31v-32a8 8 0 0 1 16 0v31.34l15.89 95.35a8.371 8.371 0 0 1 .11 1.31z" fill="#5f4623"/><path d="m440 232v40a8 8 0 0 1 -16 0v-38.46l-15.43-38.57a7.925 7.925 0 0 1 -.57-2.97v-21.58l-14.66-21.98a8.066 8.066 0 0 1 -1.34-4.44v-48a8.008 8.008 0 0 1 2.34-5.66l21.66-21.65v-44.69h16v48a8.008 8.008 0 0 1 -2.34 5.66l-21.66 21.65v42.27l14.66 21.98a8.066 8.066 0 0 1 1.34 4.44v22.46l15.43 38.57a7.925 7.925 0 0 1 .57 2.97z" fill="#5f4623"/><path d="m253.581 242.419-13.581 13.581 24 40 32-48 1.48 4.441a66.009 66.009 0 0 0 23.013 31.929l15.507 11.63 24-8-39.237-65.4a20 20 0 0 0 -24.577-8.279 126.9 126.9 0 0 0 -42.605 28.098z" fill="#f6bb92"/><path d="m88 152h8v64h-8a32 32 0 0 1 -32-32 32 32 0 0 1 32-32z" fill="#ea9d2d"/></g></svg>